<svg id="Layer_1" data-name="Layer 1" xmlns="http://www.w3.org/2000/svg" viewBox="0 0 54.5 36.6"><defs><style>.cls-1{fill:#fff;}</style></defs><title>icon</title><path class="cls-1" d="M-9.49-18.39a8.18,8.18,0,0,1,0,6.06c-2.07,4.75-1.68,4.75,4.26-1.19,4-3.92,6.59-5.46,9-5.46,4.39,0,4.39,1.9.13,9.74L0.58-3.19,9.11-11c8.78-8.31,11.5-9.38,13.56-5.82,1,1.78.13,3.44-4.65,8.67C11.82-1.29,6.66,7.62,7.95,9.52c0.52,0.71,2.84,0,5.55-1.78,5.42-3.33,6.72-3.68,6.72-1.42S9.37,15.46,5.49,15.46c-2.45,0-3.49-.71-4.13-3C0.2,8.09,1.49,4.77,6.78-1.88L11.56-7.7,6.14-3C3.17-.34-1.74,4.65-4.71,8c-5.94,6.89-8,7.72-9.17,3.56C-14.4,9.64-12.72,6.43-7.29-.81c4-5.46,7-10.09,6.59-10.45-0.9-.95-10.46,9-16.66,17.46s-7.23,8.91-9,5.23c-1.42-2.61-.78-3.92,5.81-12.83,4-5.46,7.23-10.57,7.23-11.4,0-1.07-2.84-.24-8.27,2.61a76.63,76.63,0,0,1-9,4.27c-0.39,0-.78-1.66-0.78-3.8,0-4,3.1-8.08,6.33-8.08a34.37,34.37,0,0,0,7.23-1.78C-11-21.83-10.91-21.83-9.49-18.39Z" transform="translate(31.45 21.14)"/></svg>