<svg width="24" height="26" viewBox="0 0 24 26" fill="none" xmlns="http://www.w3.org/2000/svg">
<path d="M5.75 15.5012H8.25V18.0012H5.75V15.5012Z" fill="#F4F4F4"/>
<path d="M20.75 0.5H10.75C10.087 0.5 9.45107 0.763392 8.98223 1.23223C8.51339 1.70107 8.25 2.33696 8.25 3V10.5H3.25C1.87125 10.5 0.75 11.6212 0.75 13V24.25C0.75 24.5815 0.881696 24.8995 1.11612 25.1339C1.35054 25.3683 1.66848 25.5 2 25.5H22C22.3315 25.5 22.6495 25.3683 22.8839 25.1339C23.1183 24.8995 23.25 24.5815 23.25 24.25V3C23.25 2.33696 22.9866 1.70107 22.5178 1.23223C22.0489 0.763392 21.413 0.5 20.75 0.5ZM3.25 23V13H10.75V23H3.25ZM14.5 8H12V5.5H14.5V8ZM19.5 18H17V15.5H19.5V18ZM19.5 13H17V10.5H19.5V13ZM19.5 8H17V5.5H19.5V8Z" fill="#F4F4F4"/>
</svg>
