<svg width="28" height="28" viewBox="0 0 28 28" fill="none" xmlns="http://www.w3.org/2000/svg">
<path fill-rule="evenodd" clip-rule="evenodd" d="M3.5 0L24.5 0.014C26.4425 0.014 28 1.246 28 2.8V25.2C28 26.754 26.4425 28 24.5 28H3.5C1.5575 28 0 26.754 0 25.2V2.8C0 1.246 1.5575 0 3.5 0ZM3.49992 25.2H24.4999V2.8H3.48242L3.49992 25.2ZM7 4.2C6.0335 4.2 5.25 4.8268 5.25 5.6C5.25 6.3732 6.0335 7 7 7C7.9665 7 8.75 6.3732 8.75 5.6C8.75 4.8268 7.9665 4.2 7 4.2ZM10.5001 5.6C10.5001 4.8268 11.2836 4.2 12.2501 4.2C13.2166 4.2 14.0001 4.8268 14.0001 5.6C14.0001 6.3732 13.2166 7 12.2501 7C11.2836 7 10.5001 6.3732 10.5001 5.6ZM14 23.8C18.83 23.8 22.75 20.664 22.75 16.8C22.75 12.936 18.83 9.8 14 9.8C9.17 9.8 5.25 12.936 5.25 16.8C5.25 20.664 9.17 23.8 14 23.8ZM18.1302 20.1042C20.4052 18.2842 20.4052 15.3162 18.1302 13.4962L9.87024 20.1042C12.1452 21.9242 15.8552 21.9242 18.1302 20.1042Z" fill="#F4F4F4"/>
</svg>
