<svg width="31" height="30" viewBox="0 0 31 30" fill="none" xmlns="http://www.w3.org/2000/svg">
<path d="M2.30181 0H29.1667C30.0917 0 30.828 0.73125 30.828 1.65V28.35C30.828 29.25 30.0917 30 29.1667 30H21.464V18.375H25.3908L25.9761 13.8563H21.464V10.9688C21.464 9.65625 21.8416 8.75625 23.7295 8.75625H26.146V4.70625C25.7307 4.65 24.2959 4.5375 22.6345 4.5375C19.1419 4.5375 16.7631 6.6375 16.7631 10.5188V13.8563H12.8174V18.375H16.7631V30H2.30181C1.85944 30 1.4349 29.8268 1.12034 29.5179C0.805768 29.209 0.626553 28.7893 0.621582 28.35V1.65C0.621582 0.73125 1.37674 0 2.30181 0Z" fill="#C0C0C0"/>
</svg>
