<svg width="58" height="48" viewBox="0 0 58 48" fill="none" xmlns="http://www.w3.org/2000/svg">
<path d="M28.3078 8.5166H36.2682C37.2067 8.5166 37.9674 7.88698 37.9674 7.11035C37.9674 6.33373 37.2067 5.7041 36.2682 5.7041H28.3078C27.3694 5.7041 26.6086 6.33373 26.6086 7.11035C26.6086 7.88698 27.3693 8.5166 28.3078 8.5166Z" fill="#283B5A"/>
<path d="M28.3078 14.1553H44.0789C45.0173 14.1553 45.7781 13.5256 45.7781 12.749C45.7781 11.9724 45.0173 11.3428 44.0789 11.3428H28.3078C27.3694 11.3428 26.6086 11.9724 26.6086 12.749C26.6086 13.5256 27.3693 14.1553 28.3078 14.1553Z" fill="#283B5A"/>
<path d="M53.0156 18.5725V2.59819C53.0156 1.16559 51.6072 0 49.8761 0H22.5106C20.7795 0 19.3711 1.16559 19.3711 2.59819V18.5725C18.0895 18.7887 16.951 19.3323 16.0859 20.0916C14.949 19.0936 13.3389 18.4688 11.5547 18.4688H6.23047C2.79499 18.4688 0 20.7818 0 23.625V42.8438C0 45.6869 2.79499 48 6.23047 48H11.5547C13.3389 48 14.949 47.3752 16.0859 46.3772C17.2228 47.3752 18.833 48 20.6172 48H51.7695C55.205 48 58 45.6869 58 42.8438V23.625C58 21.1349 55.856 19.0516 53.0156 18.5725ZM49.6172 2.8125V18.4688H22.7695V2.8125H49.6172ZM14.3867 42.8438C14.3867 44.1361 13.1163 45.1875 11.5547 45.1875H6.23047C4.66889 45.1875 3.39844 44.1361 3.39844 42.8438V23.625C3.39844 22.3327 4.66889 21.2812 6.23047 21.2812H11.5547C13.1163 21.2812 14.3867 22.3327 14.3867 23.625V42.8438ZM54.6016 42.8438C54.6016 44.1361 53.3311 45.1875 51.7695 45.1875H20.6172C19.0556 45.1875 17.7852 44.1361 17.7852 42.8438V23.625C17.7852 22.3327 19.0556 21.2812 20.6172 21.2812H51.7695C53.3311 21.2812 54.6016 22.3327 54.6016 23.625V42.8438Z" fill="#283B5A"/>
<path d="M28.2637 26.2031H25.998C25.0596 26.2031 24.2988 26.8327 24.2988 27.6094C24.2988 28.386 25.0596 29.0156 25.998 29.0156H28.2637C29.2021 29.0156 29.9629 28.386 29.9629 27.6094C29.9629 26.8327 29.2021 26.2031 28.2637 26.2031Z" fill="#283B5A"/>
<path d="M37.3262 26.2031H35.0605C34.1221 26.2031 33.3613 26.8327 33.3613 27.6094C33.3613 28.386 34.1221 29.0156 35.0605 29.0156H37.3262C38.2646 29.0156 39.0254 28.386 39.0254 27.6094C39.0254 26.8327 38.2646 26.2031 37.3262 26.2031Z" fill="#283B5A"/>
<path d="M46.3887 26.2031H44.123C43.1846 26.2031 42.4238 26.8327 42.4238 27.6094C42.4238 28.386 43.1846 29.0156 44.123 29.0156H46.3887C47.3271 29.0156 48.0879 28.386 48.0879 27.6094C48.0879 26.8327 47.3271 26.2031 46.3887 26.2031Z" fill="#283B5A"/>
<path d="M28.2637 31.8281H25.998C25.0596 31.8281 24.2988 32.4577 24.2988 33.2344C24.2988 34.011 25.0596 34.6406 25.998 34.6406H28.2637C29.2021 34.6406 29.9629 34.011 29.9629 33.2344C29.9629 32.4577 29.2021 31.8281 28.2637 31.8281Z" fill="#283B5A"/>
<path d="M37.3262 31.8281H35.0605C34.1221 31.8281 33.3613 32.4577 33.3613 33.2344C33.3613 34.011 34.1221 34.6406 35.0605 34.6406H37.3262C38.2646 34.6406 39.0254 34.011 39.0254 33.2344C39.0254 32.4577 38.2646 31.8281 37.3262 31.8281Z" fill="#283B5A"/>
<path d="M46.3887 31.8281H44.123C43.1846 31.8281 42.4238 32.4577 42.4238 33.2344C42.4238 34.011 43.1846 34.6406 44.123 34.6406H46.3887C47.3271 34.6406 48.0879 34.011 48.0879 33.2344C48.0879 32.4577 47.3271 31.8281 46.3887 31.8281Z" fill="#283B5A"/>
<path d="M28.2637 37.4531H25.998C25.0596 37.4531 24.2988 38.0827 24.2988 38.8594C24.2988 39.636 25.0596 40.2656 25.998 40.2656H28.2637C29.2021 40.2656 29.9629 39.636 29.9629 38.8594C29.9629 38.0827 29.2021 37.4531 28.2637 37.4531Z" fill="#283B5A"/>
<path d="M37.3262 37.4531H35.0605C34.1221 37.4531 33.3613 38.0827 33.3613 38.8594C33.3613 39.636 34.1221 40.2656 35.0605 40.2656H37.3262C38.2646 40.2656 39.0254 39.636 39.0254 38.8594C39.0254 38.0827 38.2646 37.4531 37.3262 37.4531Z" fill="#283B5A"/>
<path d="M46.3887 37.4531H44.123C43.1846 37.4531 42.4238 38.0827 42.4238 38.8594C42.4238 39.636 43.1846 40.2656 44.123 40.2656H46.3887C47.3271 40.2656 48.0879 39.636 48.0879 38.8594C48.0879 38.0827 47.3271 37.4531 46.3887 37.4531Z" fill="#283B5A"/>
</svg>
