<svg width="28" height="26" viewBox="0 0 28 26" fill="none" xmlns="http://www.w3.org/2000/svg">
<path d="M26.7295 12.795L15.4092 1.48054L14.6504 0.721753C14.4775 0.550005 14.2437 0.453613 14 0.453613C13.7563 0.453613 13.5225 0.550005 13.3496 0.721753L1.27051 12.795C1.09335 12.9715 0.953344 13.1816 0.858746 13.4131C0.764148 13.6446 0.716878 13.8926 0.719726 14.1427C0.731445 15.1739 1.58984 15.9971 2.62109 15.9971H3.86621V25.5391H24.1338V15.9971H25.4053C25.9062 15.9971 26.3779 15.8009 26.7324 15.4464C26.907 15.2724 27.0453 15.0655 27.1393 14.8377C27.2333 14.6099 27.2813 14.3657 27.2803 14.1192C27.2803 13.6212 27.084 13.1495 26.7295 12.795V12.795ZM15.6406 23.4298H12.3594V17.4532H15.6406V23.4298ZM22.0244 13.8878V23.4298H17.5156V16.7501C17.5156 16.1026 16.9912 15.5782 16.3437 15.5782H11.6562C11.0088 15.5782 10.4844 16.1026 10.4844 16.7501V23.4298H5.97558V13.8878H3.16309L14.0029 3.05671L14.6797 3.73347L24.8398 13.8878H22.0244Z" fill="#F4F4F4"/>
</svg>
