<svg width="200" height="200" viewBox="0 0 200 200" fill="none" xmlns="http://www.w3.org/2000/svg">
<path d="M156.25 12.8125C156.25 6.5625 149.688 0 142.813 0H57.1875C50.3125 0 43.75 6.5625 43.75 12.8125V186.875C43.75 193.437 50.3125 199.688 57.1875 199.688H143.125C149.688 199.688 156.563 193.125 156.563 186.875V12.8125H156.25Z" fill="#5C6D6D"/>
<path d="M153.125 184.375C153.125 190.625 146.875 196.875 140.625 196.875H59.375C53.125 196.875 46.875 190.625 46.875 184.375V15.625C46.875 9.375 53.125 3.125 59.375 3.125H140.625C146.875 3.125 153.125 9.375 153.125 15.625V184.375Z" fill="#212528"/>
<path d="M135.938 17.1875C137.663 17.1875 139.062 15.7884 139.062 14.0625C139.062 12.3366 137.663 10.9375 135.938 10.9375C134.212 10.9375 132.812 12.3366 132.812 14.0625C132.812 15.7884 134.212 17.1875 135.938 17.1875Z" fill="#94989B"/>
<path d="M109.375 14.0625C109.375 15 109.063 15.625 108.438 15.625H91.5625C90.9375 15.625 90.625 15 90.625 14.0625C90.625 13.4375 90.9375 12.5 91.5625 12.5H108.438C109.063 12.5 109.375 13.4375 109.375 14.0625Z" fill="#94989B"/>
<path d="M53.125 25H146.875V175H53.125V25Z" fill="#3E4347"/>
<path d="M111.873 188.126C111.873 189.376 110.936 190.626 109.373 190.626H90.623C89.373 190.626 88.123 189.688 88.123 188.126V183.438C88.123 182.188 89.0605 180.938 90.623 180.938H109.373C110.623 180.938 111.873 181.876 111.873 183.438V188.126Z" fill="#94989B"/>
<path d="M75.0039 45.9365C75.0039 47.499 73.7539 48.4365 72.5039 48.4365H62.1914C60.6289 48.4365 59.6914 47.1865 59.6914 45.9365V35.624C59.6914 34.0615 60.9414 33.124 62.1914 33.124H72.5039C74.0664 33.124 75.0039 34.374 75.0039 35.624V45.9365Z" fill="#42ADE2"/>
<path d="M96.8789 45.9365C96.8789 47.499 95.6289 48.4365 94.3789 48.4365H84.0664C82.5039 48.4365 81.5664 47.1865 81.5664 45.9365V35.624C81.5664 34.0615 82.8164 33.124 84.0664 33.124H94.3789C95.9414 33.124 96.8789 34.374 96.8789 35.624V45.9365Z" fill="#C7E755"/>
<path d="M118.754 45.9365C118.754 47.499 117.504 48.4365 116.254 48.4365H105.941C104.379 48.4365 103.441 47.1865 103.441 45.9365V35.624C103.441 34.0615 104.691 33.124 105.941 33.124H116.254C117.816 33.124 118.754 34.374 118.754 35.624V45.9365Z" fill="#F2B200"/>
<path d="M140.629 45.9365C140.629 47.499 139.379 48.4365 138.129 48.4365H127.816C126.254 48.4365 125.316 47.1865 125.316 45.9365V35.624C125.316 34.0615 126.566 33.124 127.816 33.124H138.129C139.691 33.124 140.629 34.374 140.629 35.624V45.9365Z" fill="#42ADE2"/>
<path d="M75.0039 166.249C75.0039 167.812 73.7539 168.749 72.5039 168.749H62.1914C60.6289 168.749 59.6914 167.499 59.6914 166.249V155.937C59.6914 154.374 60.9414 153.437 62.1914 153.437H72.5039C74.0664 153.437 75.0039 154.687 75.0039 155.937V166.249Z" fill="#C7E755"/>
<path d="M96.8789 166.249C96.8789 167.812 95.6289 168.749 94.3789 168.749H84.0664C82.5039 168.749 81.5664 167.499 81.5664 166.249V155.937C81.5664 154.374 82.8164 153.437 84.0664 153.437H94.3789C95.9414 153.437 96.8789 154.687 96.8789 155.937V166.249Z" fill="#FF435E"/>
<path d="M118.754 166.249C118.754 167.812 117.504 168.749 116.254 168.749H105.941C104.379 168.749 103.441 167.499 103.441 166.249V155.937C103.441 154.374 104.691 153.437 105.941 153.437H116.254C117.816 153.437 118.754 154.687 118.754 155.937V166.249Z" fill="#42ADE2"/>
<path d="M140.629 166.249C140.629 167.812 139.379 168.749 138.129 168.749H127.816C126.254 168.749 125.316 167.499 125.316 166.249V155.937C125.316 154.374 126.566 153.437 127.816 153.437H138.129C139.691 153.437 140.629 154.687 140.629 155.937V166.249Z" fill="#C28FEF"/>
<path d="M75.0039 105.937C75.0039 107.5 73.7539 108.437 72.5039 108.437H62.1914C60.6289 108.437 59.6914 107.187 59.6914 105.937V95.6245C59.6914 94.062 60.9414 93.1245 62.1914 93.1245H72.5039C74.0664 93.1245 75.0039 94.3745 75.0039 95.6245V105.937Z" fill="#C7E755"/>
<path d="M96.8789 105.937C96.8789 107.5 95.6289 108.437 94.3789 108.437H84.0664C82.5039 108.437 81.5664 107.187 81.5664 105.937V95.6245C81.5664 94.062 82.8164 93.1245 84.0664 93.1245H94.3789C95.9414 93.1245 96.8789 94.3745 96.8789 95.6245V105.937Z" fill="#C28FEF"/>
<path d="M118.754 105.937C118.754 107.5 117.504 108.437 116.254 108.437H105.941C104.379 108.437 103.441 107.187 103.441 105.937V95.6245C103.441 94.062 104.691 93.1245 105.941 93.1245H116.254C117.816 93.1245 118.754 94.3745 118.754 95.6245V105.937Z" fill="#42ADE2"/>
<path d="M75.0039 85.9385C75.0039 87.501 73.7539 88.4385 72.5039 88.4385H62.1914C60.6289 88.4385 59.6914 87.1885 59.6914 85.9385V75.626C59.6914 74.0635 60.9414 73.126 62.1914 73.126H72.5039C74.0664 73.126 75.0039 74.376 75.0039 75.626V85.9385Z" fill="#FF435E"/>
<path d="M96.8789 85.9385C96.8789 87.501 95.6289 88.4385 94.3789 88.4385H84.0664C82.5039 88.4385 81.5664 87.1885 81.5664 85.9385V75.626C81.5664 74.0635 82.8164 73.126 84.0664 73.126H94.3789C95.9414 73.126 96.8789 74.376 96.8789 75.626V85.9385Z" fill="#F2B200"/>
<path d="M118.754 85.9385C118.754 87.501 117.504 88.4385 116.254 88.4385H105.941C104.379 88.4385 103.441 87.1885 103.441 85.9385V75.626C103.441 74.0635 104.691 73.126 105.941 73.126H116.254C117.816 73.126 118.754 74.376 118.754 75.626V85.9385Z" fill="#C7E755"/>
<path d="M140.629 85.9385C140.629 87.501 139.379 88.4385 138.129 88.4385H127.816C126.254 88.4385 125.316 87.1885 125.316 85.9385V75.626C125.316 74.0635 126.566 73.126 127.816 73.126H138.129C139.691 73.126 140.629 74.376 140.629 75.626V85.9385Z" fill="#F2B200"/>
<path d="M75.0039 65.9375C75.0039 67.5 73.7539 68.4375 72.5039 68.4375H62.1914C60.6289 68.4375 59.6914 67.1875 59.6914 65.9375V55.625C59.6914 54.0625 60.9414 53.125 62.1914 53.125H72.5039C74.0664 53.125 75.0039 54.375 75.0039 55.625V65.9375Z" fill="#C28FEF"/>
<path d="M96.8789 65.9375C96.8789 67.5 95.6289 68.4375 94.3789 68.4375H84.0664C82.5039 68.4375 81.5664 67.1875 81.5664 65.9375V55.625C81.5664 54.0625 82.8164 53.125 84.0664 53.125H94.3789C95.9414 53.125 96.8789 54.375 96.8789 55.625V65.9375Z" fill="#42ADE2"/>
<path d="M118.754 65.9375C118.754 67.5 117.504 68.4375 116.254 68.4375H105.941C104.379 68.4375 103.441 67.1875 103.441 65.9375V55.625C103.441 54.0625 104.691 53.125 105.941 53.125H116.254C117.816 53.125 118.754 54.375 118.754 55.625V65.9375Z" fill="#FF435E"/>
<path d="M140.629 65.9375C140.629 67.5 139.379 68.4375 138.129 68.4375H127.816C126.254 68.4375 125.316 67.1875 125.316 65.9375V55.625C125.316 54.0625 126.566 53.125 127.816 53.125H138.129C139.691 53.125 140.629 54.375 140.629 55.625V65.9375Z" fill="#C28FEF"/>
</svg>
