<svg width="47" height="62" viewBox="0 0 47 62" fill="none" xmlns="http://www.w3.org/2000/svg">
<path fill-rule="evenodd" clip-rule="evenodd" d="M23.5 0C10.5079 0 0 9.703 0 21.7C0 37.975 23.5 62 23.5 62C23.5 62 47 37.975 47 21.7C47 9.703 36.4922 0 23.5 0ZM6.71427 21.6999C6.71427 13.1439 14.2343 6.19987 23.5 6.19987C32.7657 6.19987 40.2857 13.1439 40.2857 21.6999C40.2857 30.6279 30.6171 43.9889 23.5 52.3279C16.5171 44.0509 6.71427 30.5349 6.71427 21.6999ZM15.1071 21.7005C15.1071 17.4202 18.8648 13.9505 23.5 13.9505C26.4985 13.9505 29.2692 15.4276 30.7684 17.8255C32.2677 20.2234 32.2677 23.1776 30.7684 25.5755C29.2692 27.9734 26.4985 29.4505 23.5 29.4505C18.8648 29.4505 15.1071 25.9807 15.1071 21.7005Z" fill="#283B5A"/>
</svg>
