<svg width="45" height="47" viewBox="0 0 45 47" fill="none" xmlns="http://www.w3.org/2000/svg">
<path fill-rule="evenodd" clip-rule="evenodd" d="M2.45833 0H11.0625C12.4146 0 13.5208 1.16704 13.5208 2.59342C13.5208 5.8352 14.0125 8.94731 14.9221 11.8519C15.1925 12.7596 14.9958 13.7711 14.3075 14.4972L8.89917 20.2028C12.4392 27.5422 18.1425 33.533 25.0996 37.2934L30.5079 31.5879C30.9996 31.0951 31.6142 30.8358 32.2533 30.8358C32.4992 30.8358 32.7696 30.8617 33.0154 30.9655C35.7687 31.925 38.7433 32.4437 41.7917 32.4437C43.1437 32.4437 44.25 33.6108 44.25 35.0371V44.0882C44.25 45.5146 43.1437 46.6816 41.7917 46.6816C18.7079 46.6816 0 26.9457 0 2.59342C0 1.16704 1.10625 0 2.45833 0ZM8.7025 5.18716C8.85 7.4953 9.21875 9.75158 9.80875 11.9041L6.85875 15.0162C5.85083 11.9041 5.21167 8.61048 4.99042 5.18716H8.7025ZM32.9417 36.3599C35.0313 36.9823 37.17 37.3713 39.3333 37.527V41.3912C36.0883 41.1577 32.9663 40.4835 29.9917 39.4461L32.9417 36.3599Z" fill="#283B5A"/>
</svg>
