<svg width="150" height="150" viewBox="0 0 150 150" fill="none" xmlns="http://www.w3.org/2000/svg">
<path d="M145.481 55.6087L89.6523 40.6382L79.8801 4.17952C79.0626 1.13442 75.7927 -0.635633 72.5828 0.211894L4.51463 18.4525C1.30472 19.3075 -0.63023 22.4876 0.187248 25.5327L24.4116 115.918C25.2291 118.963 28.4915 120.741 31.6939 119.871L58.7907 112.618L55.1008 126.403C54.2833 129.449 56.2182 132.629 59.4282 133.476L120.252 149.782C123.461 150.644 126.716 148.874 127.541 145.814L149.816 62.6814C150.626 59.6363 148.691 56.4562 145.481 55.6087ZM12.2469 27.2278L70.9703 11.5073L92.7048 92.6449L33.9813 108.365L12.2469 27.2278ZM117.582 138.471L66.478 124.498L70.4978 109.483L99.7546 101.63C102.964 100.783 104.914 97.6025 104.089 94.5574L92.7797 52.3536L137.381 64.5865L117.582 138.471Z" fill="#575757"/>
</svg>
