<svg width="31" height="30" viewBox="0 0 31 30" fill="none" xmlns="http://www.w3.org/2000/svg">
<path d="M30.3165 3.56363C29.2057 4.14942 27.9969 4.57102 26.7517 4.73522C28.0445 3.79633 29.0125 2.31303 29.4743 0.563627C28.2613 1.44583 26.9323 2.06444 25.5465 2.39203C24.9673 1.63505 24.2668 1.032 23.4886 0.620465C22.7104 0.208931 21.8712 -0.00227123 21.0234 1.84189e-05C17.5929 1.84189e-05 14.834 3.39942 14.834 7.57102C14.834 8.15682 14.8921 8.74262 14.9864 9.30623C9.84978 8.97782 5.26854 5.97783 2.22285 1.38463C1.66789 2.54343 1.37708 3.86285 1.38066 5.20564C1.38066 7.83285 2.47333 10.1494 4.13957 11.5118C3.15763 11.4646 2.19868 11.1346 1.34073 10.5488V10.642C1.34073 14.321 3.46799 17.3698 6.30313 18.071C5.7708 18.2401 5.22319 18.3265 4.6732 18.3284C4.27025 18.3284 3.88909 18.2796 3.50429 18.213C4.2884 21.213 6.57176 23.392 9.29074 23.463C7.16348 25.5 4.49895 26.6982 1.60573 26.6982C1.08662 26.6982 0.607437 26.676 0.110107 26.605C2.8545 28.7574 6.11073 30 9.61745 30C21.0016 30 27.2309 18.4704 27.2309 8.46303C27.2309 8.13463 27.2309 7.80623 27.2128 7.47782C28.418 6.39942 29.4743 5.06362 30.3165 3.56363Z" fill="#C0C0C0"/>
</svg>
