<svg width="110" height="25" viewBox="0 0 110 25" fill="none" xmlns="http://www.w3.org/2000/svg">
<path d="M0.893131 5.26225L1.09115 4.58105C1.24516 4.09284 1.88321 3.43439 3.0053 2.60561L3.84686 1.9925L4.07786 1.92442L4.1439 2.07766L4.07786 2.2309L3.9129 2.46937L2.44424 3.93393L2.26274 4.18941L2.24624 4.32558L2.37825 4.42781L2.55977 4.41073L3.07134 4.15533L4.96898 2.94618C6.93809 1.70869 8.86326 0.789086 10.7444 0.187306C11.1295 0.0624741 11.4595 0 11.7345 0C12.3616 0.0227066 12.8731 0.499531 13.2691 1.43054L13.6487 2.33313C13.8026 2.71911 13.8797 3.08242 13.8797 3.42305L13.8466 4.00202C13.7257 4.78545 13.5442 5.47798 13.3021 6.07969L12.3945 8.0722L11.7345 9.4346L11.1239 10.4564L11.0084 10.6948L11.0249 10.9162L11.223 10.8651L11.454 10.6438L11.9325 10.0647L13.1536 8.54908C14.5177 6.88012 16.5584 4.95003 19.2756 2.75886C20.6067 1.70302 21.4923 1.17506 21.9323 1.17506C22.3393 1.17506 22.7739 1.49295 23.2359 2.12874C23.632 2.65103 23.8244 3.04267 23.8135 3.30382C23.8025 3.7012 23.6484 4.22341 23.3514 4.87053C22.7353 6.21026 22.1304 7.39101 21.5363 8.41277C20.5792 10.1045 19.6221 11.5634 18.6651 12.7895C18.555 12.9371 18.4945 13.0677 18.4836 13.1812L18.6156 13.4196L18.8301 13.3685L19.1436 13.079L20.6452 11.5634L23.665 8.58308C24.204 8.03813 25.0951 7.23202 26.3381 6.16485C27.4382 5.19984 28.5658 4.25183 29.7209 3.32082C30.359 2.7986 30.9696 2.36714 31.5526 2.02658C31.7836 1.89034 31.9871 1.82218 32.1632 1.82218C32.5371 1.83359 32.9387 2.24231 33.3677 3.04834C33.6867 3.65012 33.8573 4.21775 33.8793 4.75137C33.8682 5.17143 33.6593 5.58014 33.2522 5.97753L31.3711 7.79972C30.414 8.69665 29.4954 9.62192 28.6153 10.5756C24.93 14.5152 23.0654 17.6317 23.0214 19.9251C22.9994 20.7766 23.3899 21.1966 24.193 21.1853C24.534 21.1853 24.8971 21.1228 25.2821 20.998L26.9817 20.3849C28.6979 19.7264 30.0454 19.0849 31.0245 18.4605C31.2115 18.3356 31.3711 18.2732 31.5031 18.2732L31.6516 18.3413L31.7836 18.5116C31.8386 18.6591 31.8716 18.8238 31.8826 19.0055C31.8826 19.3347 31.8496 19.5617 31.7836 19.6867C31.7176 19.8116 31.5141 20.0102 31.173 20.2827L29.2919 21.7813C28.2908 22.5647 27.2348 23.263 26.1236 23.876C25.3976 24.2847 24.688 24.5913 23.995 24.7956C23.5989 24.9205 23.1644 24.9829 22.6913 24.9829C20.8872 24.9829 19.9852 23.8419 19.9852 21.5599C19.9742 19.4709 20.8983 17.1321 22.7574 14.5436L24.1105 12.7895L25.5791 10.9502C26.1951 10.1101 26.6187 9.58784 26.8497 9.38352L27.0312 9.17912L27.0642 9.04288L26.9487 8.9918L26.7507 9.04288L26.2556 9.33244C25.9366 9.57084 25.5681 9.8774 25.15 10.252L23.1039 12.1253C20.0456 14.9296 17.708 17.3932 16.0908 19.5163L14.6058 21.4578C14.2977 21.8665 13.8797 22.332 13.3516 22.8542L12.5101 23.6205C12.2241 23.859 11.9655 23.9725 11.7345 23.9612C11.4375 23.9838 11.1624 23.5581 10.9095 22.6839C10.7334 22.0481 10.6399 21.5032 10.6289 21.049C10.6289 20.3565 10.9479 19.5561 11.586 18.6478L12.6421 17.081L14.3087 14.7649L15.9259 12.2956L17.8895 9.14512C18.2745 8.48659 18.632 7.84514 18.9621 7.22069C19.1711 6.83471 19.3141 6.48274 19.3911 6.16485L19.4571 5.75613L19.4241 5.51773L19.2096 5.55181L18.7476 5.82429L17.7575 6.52249C17.2294 6.90846 16.5749 7.51591 15.7938 8.34468L14.2262 10.0476L11.9655 12.9598L8.63226 17.2173L6.6026 20.1635L5.61249 21.6962C5.35952 22.1162 5.12845 22.4512 4.91949 22.7009C4.64441 23.0188 4.34188 23.1778 4.01189 23.1778C3.42886 23.1664 2.9558 22.7009 2.59279 21.7813L2.32874 20.9468C2.24074 20.6063 2.19673 20.2714 2.19673 19.9421C2.18574 19.7604 2.20774 19.6128 2.26274 19.4993L2.5433 19.0395L3.64888 17.5579C4.75995 16.0706 5.69501 14.7593 6.45405 13.624C9.22627 9.51409 10.7334 6.69847 10.9754 5.17709L10.992 4.81945L10.9259 4.68321L10.7774 4.59806L10.4804 4.58105C10.0404 4.66054 9.38032 4.89895 8.50025 5.29633L6.47059 6.23293L3.64888 7.71456L1.63569 8.66824C1.17366 8.90664 0.783123 9.02021 0.464094 9.00888C0.134075 8.99747 -0.019945 8.84423 0.00206382 8.54908L0.0845654 8.10628L0.893131 5.26225ZM34.9188 23.0416L34.3248 23.5184C34.0937 23.6659 33.8848 23.7398 33.6978 23.7398C32.9827 23.7738 32.3392 23.1381 31.7671 21.8324C31.36 20.9468 31.1566 20.067 31.1566 19.1928C31.1675 18.2618 31.36 17.5068 31.7341 16.9278C32.1191 16.3374 32.7022 15.6903 33.4833 14.9863C34.4843 14.0895 35.3369 13.3969 36.041 12.9087C38.4281 11.2625 40.5513 10.4507 42.4105 10.4734C42.7295 10.4621 43.0045 10.5926 43.2355 10.8651C43.4225 11.0695 43.582 11.2965 43.714 11.5464L43.846 11.8528V11.9891L43.7471 12.1764L43.2025 12.6022C42.9715 12.7724 42.856 12.9258 42.856 13.062C42.8449 13.1755 42.8725 13.2891 42.9385 13.4026L43.3345 14.3222C43.3895 14.4585 43.417 14.5947 43.417 14.7309C43.406 15.0488 43.3345 15.3042 43.2025 15.4972L41.9979 17.2173C41.2719 18.2504 40.9033 19.2211 40.8923 20.1294C40.8923 20.6857 41.1288 20.9809 41.6019 21.015C42.0089 21.0263 42.4874 20.8106 43.0375 20.3679C43.3345 20.1521 43.9176 19.6128 44.7867 18.75L45.2651 18.3243L45.5457 18.1539H45.6777L45.8262 18.3413L45.9087 18.733L45.8757 19.2269C45.8317 19.3858 45.7602 19.522 45.6612 19.6356L45.1497 20.1635L42.1794 23.1607C41.4094 23.9668 40.6118 24.3642 39.7867 24.3529C38.7747 24.3188 38.2851 23.7852 38.3181 22.752C38.3071 22.3433 38.3566 21.8494 38.4666 21.2704C38.5766 20.6914 38.7252 20.1635 38.9122 19.6867L38.9782 19.2779L38.7307 19.3631L38.4997 19.5674L37.9386 20.2145L34.9188 23.0416ZM33.7307 19.8399C33.7088 20.2032 33.8793 20.3905 34.2423 20.4019C34.3963 20.4019 34.5393 20.3622 34.6713 20.2827L35.3643 19.7888C36.4865 18.9146 37.4876 17.9893 38.3676 17.0129L40.4963 14.5776C40.6723 14.4073 40.7878 14.2257 40.8428 14.0327L40.8264 13.8113L40.5623 13.8453L39.4897 14.2881C38.8627 14.5833 38.2741 14.8785 37.7241 15.1737L35.7604 16.3658C34.3963 17.2059 33.7197 18.364 33.7307 19.8399ZM45.1497 19.7377C45.1387 19.0225 45.2267 18.381 45.4137 17.8134C45.6557 16.9845 46.0792 16.2238 46.6843 15.5313C47.5863 14.4755 48.5984 13.5615 49.7206 12.7895C51.1066 11.8472 52.3553 11.3647 53.4663 11.342C54.3244 11.342 54.7424 11.6258 54.7204 12.1935C54.7204 12.8973 54.3684 13.641 53.6643 14.4244C52.8392 15.3213 52.1572 15.7527 51.6182 15.7186C51.3431 15.7073 51.1891 15.6051 51.1561 15.4121L51.0571 14.8672L50.9086 14.6287L50.6446 14.7649C50.0945 15.3099 49.5555 15.9571 49.0275 16.7064C48.1364 17.9212 47.7019 18.767 47.7239 19.2439C47.7129 19.8456 47.8724 20.3792 48.2024 20.8447C48.5765 21.3896 49.0385 21.6621 49.5885 21.6621C49.8966 21.6848 50.2596 21.6167 50.6776 21.4578C51.7447 21.1058 52.6027 20.7198 53.2518 20.2997C54.5609 19.4368 55.331 18.8749 55.562 18.6137C55.683 18.4775 55.7875 18.398 55.8756 18.3753L56.0075 18.3923L56.09 18.4605C56.134 18.54 56.1561 18.6819 56.1561 18.8862L56.1065 19.4482C56.0625 19.6639 56.002 19.8342 55.925 19.9591C55.815 20.1067 55.6445 20.294 55.4135 20.5211L53.4498 22.3433C52.8008 22.9564 52.1352 23.4957 51.4532 23.9612C50.4741 24.6424 49.572 24.9887 48.747 25C47.5259 25 46.5907 24.404 45.9417 23.2118C45.4137 22.2581 45.1497 21.1001 45.1497 19.7377ZM59.3408 19.7547C59.4948 19.5731 59.6928 19.2609 59.9349 18.8181L60.5619 17.7622L61.3375 16.5531C61.8985 15.713 62.3881 15.0545 62.8061 14.5776C63.2681 14.0554 63.7906 13.5729 64.3737 13.1301C65.2318 12.4943 65.8585 12.1651 66.2549 12.1424C66.5189 12.131 66.8047 12.341 67.1131 12.7724L67.5419 13.3004C67.6412 13.4707 67.6905 13.6296 67.6905 13.7773C67.6905 13.9703 67.5912 14.203 67.3933 14.4755L65.8092 16.6723L64.7367 18.1199C64.1757 18.9146 63.9007 19.5163 63.9116 19.9251C63.8897 20.4927 64.1372 20.7766 64.6542 20.7766C65.0833 20.7652 65.7158 20.4587 66.552 19.8569L67.3933 19.2269L68.3009 18.3583L68.5649 18.1709L68.7465 18.1369L68.862 18.188L68.9282 18.2902L68.9113 18.6478L68.8951 19.2779C68.8838 19.4368 68.7958 19.6128 68.6311 19.8058L68.1361 20.3338L66.7667 21.6451C66.1831 22.2014 65.6003 22.6896 65.0172 23.1096C64.5552 23.4616 64.0767 23.7398 63.5817 23.9441C63.3066 24.069 63.0591 24.1257 62.8391 24.1144C62.41 24.1371 62.0305 23.9271 61.7005 23.4843C61.4584 23.1664 61.3375 22.7293 61.3375 22.173C61.3375 20.9809 61.8875 19.4993 62.9876 17.7282C63.4716 16.9334 63.8401 16.3942 64.0932 16.1103C64.2032 15.9854 64.2857 15.8492 64.3407 15.7016L64.3572 15.4802L64.1426 15.6165C63.9226 15.8549 63.6586 16.2068 63.3506 16.6723L62.2121 18.4264L60.9909 20.5211C60.3419 21.4294 59.4893 22.2468 58.4333 22.9734C57.9382 23.3254 57.5806 23.4957 57.3606 23.4843C56.5906 23.507 56.1066 23.0472 55.9085 22.1049L55.76 21.1001L55.6445 20.0613V19.4142C55.6445 18.6762 55.8865 17.7622 56.3706 16.6723L57.2781 14.799C58.4002 12.5965 59.9513 10.0931 61.9315 7.28884C62.5915 6.3465 63.3066 5.40983 64.0767 4.47889C65.0997 3.22999 66.0901 2.14007 67.047 1.20914C67.2997 0.95933 67.5863 0.743672 67.9052 0.562019C68.0587 0.493863 68.191 0.44845 68.3009 0.425779C68.51 0.437115 68.7627 0.58469 69.0598 0.868504C69.3682 1.15239 69.5273 1.41346 69.5386 1.65194C69.5386 1.83359 69.4619 2.07766 69.3077 2.38422L68.8789 3.23566L67.9214 5.00685L66.5351 7.35693L65.0502 9.673L63.2681 12.3978L61.7005 14.7139L59.5718 17.6771C59.1428 18.2448 58.9283 18.7897 58.9283 19.3119L58.9613 20.1465L59.3408 19.7547ZM71.8817 23.0416L71.2875 23.5184C71.0565 23.6659 70.8475 23.7398 70.6609 23.7398C69.9455 23.7738 69.302 23.1381 68.7303 21.8324C68.3227 20.9468 68.1192 20.067 68.1192 19.1928C68.1305 18.2618 68.3227 17.5068 68.6973 16.9278C69.0824 16.3374 69.6653 15.6903 70.4461 14.9863C71.4473 14.0895 72.2999 13.3969 73.004 12.9087C75.3914 11.2625 77.5142 10.4507 79.3736 10.4734C79.6925 10.4621 79.9678 10.5926 80.1987 10.8651C80.3853 11.0695 80.5451 11.2965 80.6768 11.5464L80.8091 11.8528V11.9891L80.7099 12.1764L80.1656 12.6022C79.9347 12.7724 79.8192 12.9258 79.8192 13.062C79.808 13.1755 79.8354 13.2891 79.9016 13.4026L80.2973 14.3222C80.3522 14.4585 80.3797 14.5947 80.3797 14.7309C80.3691 15.0488 80.2973 15.3042 80.1656 15.4972L78.961 17.2173C78.2351 18.2504 77.8662 19.2211 77.8556 20.1294C77.8556 20.6857 78.0915 20.9809 78.5646 21.015C78.9715 21.0263 79.4503 20.8106 80.0002 20.3679C80.2973 20.1521 80.8802 19.6128 81.7498 18.75L82.2278 18.3243L82.5087 18.1539H82.6404L82.7889 18.3413L82.8713 18.733L82.8389 19.2269C82.7946 19.3858 82.7235 19.522 82.6242 19.6356L82.1123 20.1635L79.1426 23.1607C78.3724 23.9668 77.5747 24.3642 76.7495 24.3529C75.7378 24.3188 75.2478 23.7852 75.2809 22.752C75.2703 22.3433 75.3196 21.8494 75.4294 21.2704C75.5393 20.6914 75.6878 20.1635 75.8751 19.6867L75.9413 19.2779L75.6935 19.3631L75.4625 19.5674L74.9014 20.2145L71.8817 23.0416ZM70.694 19.8399C70.6714 20.2032 70.8425 20.3905 71.2051 20.4019C71.3593 20.4019 71.5022 20.3622 71.6346 20.2827L72.3274 19.7888C73.4496 18.9146 74.4508 17.9893 75.3309 17.0129L77.4592 14.5776C77.6353 14.4073 77.7507 14.2257 77.8056 14.0327L77.7894 13.8113L77.5254 13.8453L76.4524 14.2881C75.8258 14.5833 75.2372 14.8785 74.6874 15.1737L72.7231 16.3658C71.3593 17.2059 70.6827 18.364 70.694 19.8399ZM87.492 21.9856L86.4029 22.9564L85.5115 23.6887C85.2038 23.9157 84.9124 24.0236 84.6371 24.0122C83.9879 24.0122 83.3775 23.4162 82.8058 22.2241C82.3658 21.3045 82.1511 20.4246 82.1623 19.5844C82.1729 17.7225 82.96 16.1273 84.5216 14.799C85.4348 14.0157 86.4416 13.3401 87.5413 12.7724C89.2465 11.8869 90.5336 11.4441 91.4031 11.4441C91.7987 11.4328 92.1564 11.6428 92.4753 12.0742L92.7232 12.2956L92.9372 12.0913L93.1027 11.7337C93.8835 9.80357 95.105 7.60107 96.7659 5.12601C97.1397 4.56972 97.5636 4.03609 98.0367 3.52521C98.2782 3.2414 98.5091 3.10516 98.7295 3.11649C99.0597 3.13916 99.3293 3.33223 99.5377 3.69553C99.7581 4.05884 99.8679 4.41074 99.8679 4.75137C99.8574 5.05793 99.7968 5.33041 99.6863 5.56881L98.878 6.94821L95.7429 11.955L94.6368 13.641C94.4171 14.0383 94.1862 14.5493 93.944 15.1737C93.6582 15.8663 93.4047 16.5645 93.185 17.2684C92.9759 17.9723 92.8168 18.6365 92.7063 19.2609C92.6514 19.5107 92.6295 19.7945 92.6408 20.1124C92.6295 20.5211 92.6901 20.839 92.8217 21.0661L93.0034 21.2704L93.185 21.3556C93.3829 21.3669 93.5863 21.3101 93.7954 21.1853L94.5051 20.7255L95.0163 20.3168L96.749 18.8011L97.0792 18.4775C97.2221 18.3526 97.3488 18.2788 97.4587 18.2561L97.591 18.2902L97.6896 18.3753C97.7558 18.5002 97.7945 18.6478 97.805 18.8181L97.7558 19.3971L97.4917 19.8229L96.9306 20.5211L95.0001 22.6668L94.1256 23.5524C93.2787 24.3245 92.5415 24.7048 91.9142 24.6934C90.7152 24.6934 90.0992 23.7171 90.0661 21.7643C90.0555 21.0263 90.1484 20.277 90.347 19.5163L90.3801 19.1587L90.0661 19.329L89.7359 19.6356L87.492 21.9856ZM89.4887 17.2854C89.6317 17.1492 89.9893 16.9334 90.561 16.6383C90.8912 16.4793 91.1003 16.3204 91.1883 16.1614C91.2327 16.0933 91.2601 15.9741 91.2707 15.8038V15.6675L91.0729 15.6335C90.8638 15.6903 90.6216 15.7925 90.347 15.94C90.083 16.0877 89.588 16.292 88.8614 16.5531C88.0806 16.837 87.3766 17.1264 86.7493 17.4217C86.3641 17.6033 86.0177 17.836 85.7101 18.1199C85.534 18.2675 85.3911 18.4492 85.2806 18.6648C85.1158 18.9486 84.9617 19.3063 84.8187 19.7377C84.7525 19.8966 84.7251 20.0443 84.7364 20.1805C84.7364 20.5211 84.8736 20.6857 85.1489 20.6743C85.5115 20.6857 86.2599 20.1919 87.3928 19.1928L89.4887 17.2854ZM96.9637 19.6696C96.9637 18.2504 97.541 16.8085 98.6964 15.344C99.3892 14.4698 100.083 13.7602 100.775 13.2152C101.469 12.6589 102.222 12.2218 103.036 11.9039C103.575 11.6996 104.054 11.5917 104.472 11.5804C105.264 11.5917 105.897 11.8812 106.37 12.4489L106.502 12.7044L106.518 12.8576C106.507 12.9257 106.392 13.1017 106.171 13.3855L106.04 13.7432L106.37 13.8964C106.787 14.044 107.013 14.4698 107.046 15.1737C107.035 16.0593 106.881 16.8937 106.584 17.6771L106.073 18.8011L105.792 19.346C105.704 19.4823 105.666 19.5844 105.676 19.6526L105.709 19.7718L105.825 19.874C105.924 19.9421 106.045 19.9705 106.188 19.9591C106.529 19.9591 106.925 19.8796 107.376 19.7207L108.217 19.3631C108.526 19.2154 108.762 19.0679 108.927 18.9203C109.224 18.6819 109.445 18.54 109.587 18.4945L109.769 18.5286L109.918 18.6819C109.973 18.7841 110 18.909 110 19.0565C110 19.4198 109.918 19.7093 109.752 19.9251C109.51 20.2657 109.059 20.6063 108.399 20.9468C107.926 21.208 107.453 21.4237 106.98 21.594C106.606 21.7416 106.298 21.8154 106.056 21.8154L105.033 21.7472L104.505 21.7643C104.362 21.7983 104.192 21.9232 103.993 22.139L102.97 23.0416C102.024 23.7795 101.194 24.1428 100.478 24.1315C99.5328 24.1542 98.6851 23.6319 97.9374 22.5647C97.2995 21.7018 96.975 20.7368 96.9637 19.6696ZM99.5377 19.6015C99.5159 20.4076 99.9067 20.8049 100.709 20.7936L101.469 20.7255L102.112 20.6063L102.756 20.4359L102.97 20.3168L102.838 18.8692C102.838 18.6648 102.893 18.398 103.003 18.0688L103.317 16.9959L103.614 16.1273L103.944 15.5143L104.208 14.9183L103.548 15.1056C103.031 15.3781 102.486 15.7414 101.914 16.1955L100.941 16.9448C100.138 17.5238 99.6757 18.2675 99.5546 19.1758L99.5377 19.6015Z" fill="#283B5A"/>
</svg>
