<svg width="130" height="30" viewBox="0 0 130 30" fill="none" xmlns="http://www.w3.org/2000/svg">
<path d="M1.05552 6.3147L1.28954 5.49726C1.47155 4.91141 2.22561 4.12126 3.55172 3.12674L4.54629 2.391L4.81929 2.3093L4.89734 2.49319L4.81929 2.67708L4.62433 2.96325L2.88864 4.72072L2.67415 5.02729L2.65465 5.19069L2.81066 5.31337L3.02519 5.29288L3.62977 4.9864L5.87243 3.53541C8.19956 2.05042 10.4748 0.946903 12.698 0.224767C13.153 0.0749689 13.543 0 13.868 0C14.6091 0.0272479 15.2136 0.599437 15.6817 1.71665L16.1302 2.79976C16.3122 3.26293 16.4032 3.6989 16.4032 4.10766L16.3642 4.80242C16.2213 5.74254 16.0068 6.57358 15.7207 7.29563L14.6481 9.68664L13.868 11.3215L13.1464 12.5477L13.01 12.8338L13.0295 13.0995L13.2635 13.0381L13.5365 12.7725L14.1021 12.0777L15.5452 10.2589C17.1573 8.25615 19.569 5.94003 22.7803 3.31063C24.3534 2.04362 25.3999 1.41007 25.92 1.41007C26.401 1.41007 26.9146 1.79154 27.4606 2.55449C27.9287 3.18123 28.1562 3.65121 28.1432 3.96458C28.1302 4.44144 27.9481 5.0681 27.5971 5.84464C26.869 7.45231 26.1541 8.86921 25.452 10.0953C24.3208 12.1254 23.1898 13.876 22.0587 15.3474C21.9286 15.5245 21.8572 15.6812 21.8442 15.8175L22.0002 16.1036L22.2537 16.0423L22.6243 15.6948L24.3989 13.876L27.9677 10.2997C28.6047 9.64575 29.6578 8.67843 31.1269 7.39782C32.427 6.2398 33.7596 5.10219 35.1247 3.98498C35.8788 3.35832 36.6004 2.84057 37.2894 2.43189C37.5624 2.26841 37.803 2.18662 38.011 2.18662C38.453 2.20031 38.9275 2.69077 39.4346 3.65801C39.8116 4.38014 40.0131 5.0613 40.0392 5.70165C40.0261 6.20571 39.7791 6.69617 39.298 7.17303L37.0749 9.35967C35.9438 10.436 34.8582 11.5463 33.8181 12.6907C29.4628 17.4183 27.2591 21.1581 27.2071 23.9101C27.1811 24.9319 27.6426 25.4359 28.5918 25.4223C28.9947 25.4223 29.4238 25.3474 29.8788 25.1976L31.8875 24.4618C33.9156 23.6717 35.5082 22.9019 36.6654 22.1526C36.8864 22.0027 37.0749 21.9278 37.2309 21.9278L37.4064 22.0095L37.5624 22.2139C37.6274 22.391 37.6664 22.5886 37.6794 22.8065C37.6794 23.2016 37.6405 23.4741 37.5624 23.624C37.4844 23.7739 37.2439 24.0123 36.8409 24.3392L34.6177 26.1376C33.4346 27.0776 32.1865 27.9156 30.8734 28.6512C30.0153 29.1417 29.1768 29.5095 28.3577 29.7547C27.8897 29.9046 27.3761 29.9795 26.817 29.9795C24.6849 29.9795 23.6188 28.6103 23.6188 25.8719C23.6058 23.3651 24.6979 20.5585 26.8951 17.4523L28.4942 15.3474L30.2298 13.1403C30.9579 12.1322 31.4585 11.5054 31.7315 11.2602L31.946 11.0149L31.985 10.8515L31.8485 10.7902L31.6145 10.8515L31.0294 11.1989C30.6524 11.485 30.2169 11.8529 29.7228 12.3024L27.3046 14.5504C23.6903 17.9155 20.9276 20.8719 19.0164 23.4196L17.2613 25.7493C16.8973 26.2398 16.4032 26.7983 15.7792 27.425L14.7846 28.3446C14.4466 28.6308 14.1411 28.767 13.868 28.7534C13.517 28.7806 13.192 28.2697 12.893 27.2207C12.685 26.4578 12.5745 25.8038 12.5614 25.2589C12.5614 24.4278 12.9384 23.4673 13.6925 22.3774L14.9406 20.4972L16.9103 17.7179L18.8215 14.7548L21.1421 10.9741C21.5972 10.1839 22.0197 9.41416 22.4098 8.66482C22.6567 8.20165 22.8258 7.77929 22.9167 7.39782L22.9948 6.90735L22.9558 6.62127L22.7022 6.66217L22.1562 6.98914L20.9861 7.82698C20.362 8.29016 19.5885 9.01909 18.6655 10.0136L16.8128 12.0572L14.1411 15.5518L10.2018 20.6607L7.80308 24.1961L6.63294 26.0354C6.33398 26.5395 6.0609 26.9414 5.81394 27.2411C5.48885 27.6226 5.13131 27.8134 4.74132 27.8134C4.05229 27.7997 3.49322 27.2411 3.06421 26.1376L2.75215 25.1362C2.64814 24.7275 2.59614 24.3256 2.59614 23.9305C2.58314 23.7125 2.60914 23.5354 2.67415 23.3992L3.00572 22.8474L4.31231 21.0695C5.62539 19.2847 6.73046 17.7111 7.62751 16.3487C10.9038 11.4169 12.685 8.03817 12.971 6.21251L12.9905 5.78334L12.9125 5.61986L12.737 5.51767L12.3859 5.49726C11.8659 5.59265 11.0858 5.87874 10.0457 6.3556L7.64706 7.47952L4.31231 9.25748L1.93309 10.4019C1.38705 10.688 0.925509 10.8243 0.548475 10.8107C0.158452 10.797 -0.0235713 10.6131 0.00243906 10.2589L0.0999409 9.72754L1.05552 6.3147ZM41.2677 27.6499L40.5657 28.222C40.2926 28.3991 40.0456 28.4877 39.8246 28.4877C38.9795 28.5286 38.219 27.7657 37.543 26.1989C37.0619 25.1362 36.8214 24.0804 36.8214 23.0313C36.8344 21.9141 37.0619 21.0082 37.5039 20.3133C37.959 19.6049 38.648 18.8283 39.5711 17.9836C40.7542 16.9074 41.7618 16.0763 42.5939 15.4905C45.4151 13.515 47.9242 12.5408 50.1215 12.5681C50.4985 12.5545 50.8235 12.7111 51.0965 13.0381C51.3175 13.2834 51.506 13.5558 51.662 13.8556L51.818 14.2234V14.3869L51.7011 14.6117L51.0575 15.1226C50.7845 15.3269 50.648 15.5109 50.648 15.6744C50.6349 15.8106 50.6675 15.9469 50.7455 16.0831L51.2135 17.1867C51.2785 17.3502 51.311 17.5136 51.311 17.6771C51.298 18.0586 51.2135 18.3651 51.0575 18.5967L49.6339 20.6607C48.7758 21.9005 48.3403 23.0653 48.3273 24.1553C48.3273 24.8229 48.6068 25.1771 49.1658 25.218C49.6469 25.2316 50.2124 24.9728 50.8625 24.4414C51.2135 24.1825 51.9026 23.5354 52.9297 22.5L53.4952 21.9891L53.8267 21.7847H53.9828L54.1582 22.0095L54.2558 22.4796L54.2167 23.0722C54.1647 23.2629 54.0803 23.4264 53.9632 23.5627L53.3587 24.1961L49.8484 27.7929C48.9384 28.7602 47.9958 29.2371 47.0207 29.2235C45.8246 29.1826 45.2461 28.5422 45.285 27.3024C45.272 26.8119 45.3305 26.2193 45.4606 25.5245C45.5905 24.8297 45.7661 24.1961 45.9871 23.624L46.0651 23.1335L45.7726 23.2357L45.4996 23.4809L44.8365 24.2574L41.2677 27.6499ZM39.8636 23.8079C39.8376 24.2438 40.0392 24.4686 40.4682 24.4822C40.6501 24.4822 40.8192 24.4346 40.9752 24.3392L41.7942 23.7466C43.1204 22.6976 44.3035 21.5871 45.3436 20.4155L47.8592 17.4932C48.0673 17.2888 48.2038 17.0708 48.2688 16.8392L48.2493 16.5735L47.9373 16.6144L46.6696 17.1458C45.9286 17.5 45.2331 17.8542 44.583 18.2084L42.2623 19.639C40.6501 20.6471 39.8506 22.0368 39.8636 23.8079ZM53.3587 23.6853C53.3457 22.8269 53.4497 22.0572 53.6707 21.376C53.9567 20.3814 54.4573 19.4686 55.1724 18.6376C56.2384 17.3706 57.4345 16.2738 58.7606 15.3474C60.3987 14.2166 61.8744 13.6376 63.1875 13.6103C64.2015 13.6103 64.6956 13.9509 64.6696 14.6322C64.6696 15.4768 64.2535 16.3692 63.4215 17.3093C62.4464 18.3856 61.6403 18.9032 61.0033 18.8624C60.6782 18.8487 60.4963 18.7262 60.4572 18.4946L60.3402 17.8406L60.1648 17.5545L59.8527 17.7179C59.2026 18.3719 58.5656 19.1485 57.9416 20.0477C56.8885 21.5054 56.375 22.5204 56.4009 23.0926C56.3879 23.8147 56.5765 24.455 56.9665 25.0136C57.4085 25.6675 57.9545 25.9945 58.6046 25.9945C58.9687 26.0218 59.3977 25.94 59.8917 25.7493C61.1528 25.327 62.1669 24.8638 62.934 24.3596C64.4811 23.3242 65.3911 22.6499 65.6641 22.3365C65.8072 22.173 65.9307 22.0776 66.0347 22.0504L66.1907 22.0708L66.2882 22.1526C66.3402 22.248 66.3662 22.4183 66.3662 22.6635L66.3077 23.3379C66.2557 23.5967 66.1842 23.8011 66.0932 23.951C65.9632 24.128 65.7617 24.3528 65.4887 24.6253L63.1679 26.8119C62.4009 27.5477 61.6143 28.1948 60.8083 28.7534C59.6512 29.5708 58.5851 29.9864 57.6101 30C56.1669 30 55.0618 29.2847 54.2948 27.8542C53.6707 26.7098 53.3587 25.3202 53.3587 23.6853ZM70.13 23.7057C70.3121 23.4877 70.546 23.113 70.8321 22.5818L71.5731 21.3147L72.4897 19.8638C73.1527 18.8556 73.7314 18.0654 74.2254 17.4932C74.7714 16.8665 75.3889 16.2874 76.078 15.7561C77.0921 14.9931 77.8328 14.5981 78.3012 14.5709C78.6132 14.5572 78.9511 14.8093 79.3155 15.3269L79.8222 15.9605C79.9396 16.1649 79.9978 16.3555 79.9978 16.5327C79.9978 16.7643 79.8805 17.0436 79.6467 17.3706L77.7745 20.0068L76.507 21.7438C75.844 22.6976 75.519 23.4196 75.5319 23.9101C75.506 24.5912 75.7985 24.9319 76.4095 24.9319C76.9166 24.9182 77.6641 24.5504 78.6524 23.8283L79.6467 23.0722L80.7192 22.03L81.0312 21.8051L81.2459 21.7643L81.3824 21.8256L81.4606 21.9482L81.4406 22.3774L81.4215 23.1335C81.4082 23.3242 81.3042 23.5354 81.1095 23.767L80.5245 24.4005L78.9061 25.9741C78.2164 26.6417 77.5276 27.2275 76.8385 27.7316C76.2925 28.1539 75.727 28.4877 75.142 28.7329C74.8169 28.8828 74.5244 28.9509 74.2644 28.9373C73.7573 28.9646 73.3088 28.7125 72.9188 28.1811C72.6327 27.7997 72.4897 27.2752 72.4897 26.6077C72.4897 25.1771 73.1398 23.3992 74.4399 21.2739C75.0119 20.3201 75.4474 19.673 75.7465 19.3324C75.8765 19.1825 75.974 19.019 76.039 18.8419L76.0585 18.5763L75.8049 18.7398C75.5449 19.0258 75.2329 19.4482 74.8689 20.0068L73.5233 22.1117L72.0802 24.6253C71.3131 25.7152 70.3056 26.6962 69.0575 27.5681C68.4724 27.9905 68.0498 28.1948 67.7898 28.1811C66.8798 28.2084 66.3077 27.6567 66.0737 26.5259L65.8982 25.3202L65.7617 24.0736V23.297C65.7617 22.4114 66.0477 21.3147 66.6198 20.0068L67.6923 17.7588C69.0184 15.1158 70.8516 12.1118 73.1918 8.74661C73.9718 7.6158 74.8169 6.49179 75.727 5.37467C76.9361 3.87599 78.1065 2.56809 79.2373 1.45097C79.536 1.1512 79.8747 0.892406 80.2516 0.674423C80.433 0.592636 80.5894 0.53814 80.7192 0.510935C80.9663 0.524537 81.265 0.701628 81.6162 1.04221C81.9806 1.38287 82.1687 1.69615 82.182 1.98232C82.182 2.20031 82.0913 2.49319 81.9091 2.86106L81.4023 3.88279L80.2707 6.00822L78.6324 8.82831L76.8776 11.6076L74.7714 14.8774L72.9188 17.6566L70.4031 21.2125C69.896 21.8937 69.6425 22.5477 69.6425 23.1743L69.6815 24.1757L70.13 23.7057ZM84.9511 27.6499L84.2488 28.222C83.9759 28.3991 83.7288 28.4877 83.5083 28.4877C82.6629 28.5286 81.9024 27.7657 81.2268 26.1989C80.745 25.1362 80.5045 24.0804 80.5045 23.0313C80.5179 21.9141 80.745 21.0082 81.1877 20.3133C81.6428 19.6049 82.3318 18.8283 83.2545 17.9836C84.4377 16.9074 85.4453 16.0763 86.2774 15.4905C89.0989 13.515 91.6076 12.5408 93.8051 12.5681C94.182 12.5545 94.5074 12.7111 94.7803 13.0381C95.0008 13.2834 95.1897 13.5558 95.3453 13.8556L95.5017 14.2234V14.3869L95.3844 14.6117L94.7412 15.1226C94.4683 15.3269 94.3318 15.5109 94.3318 15.6744C94.3185 15.8106 94.351 15.9469 94.4292 16.0831L94.8968 17.1867C94.9617 17.3502 94.9941 17.5136 94.9941 17.6771C94.9817 18.0586 94.8968 18.3651 94.7412 18.5967L93.3175 20.6607C92.4597 21.9005 92.0237 23.0653 92.0112 24.1553C92.0112 24.8229 92.2899 25.1771 92.8491 25.218C93.33 25.2316 93.8958 24.9728 94.5457 24.4414C94.8968 24.1825 95.5857 23.5354 96.6133 22.5L97.1783 21.9891L97.5103 21.7847H97.6659L97.8415 22.0095L97.9388 22.4796L97.9005 23.0722C97.8481 23.2629 97.7641 23.4264 97.6468 23.5627L97.0419 24.1961L93.5322 27.7929C92.6219 28.7602 91.6792 29.2371 90.704 29.2235C89.5083 29.1826 88.9292 28.5422 88.9683 27.3024C88.9558 26.8119 89.0141 26.2193 89.1439 25.5245C89.2737 24.8297 89.4493 24.1961 89.6706 23.624L89.7488 23.1335L89.4559 23.2357L89.183 23.4809L88.5198 24.2574L84.9511 27.6499ZM83.5474 23.8079C83.5208 24.2438 83.723 24.4686 84.1515 24.4822C84.3337 24.4822 84.5026 24.4346 84.659 24.3392L85.4778 23.7466C86.8041 22.6976 87.9873 21.5871 89.0274 20.4155L91.5427 17.4932C91.7507 17.2888 91.8872 17.0708 91.9521 16.8392L91.933 16.5735L91.6209 16.6144L90.3529 17.1458C89.6123 17.5 88.9167 17.8542 88.2669 18.2084L85.9454 19.639C84.3337 20.6471 83.5341 22.0368 83.5474 23.8079ZM103.4 26.3828L102.112 27.5477L101.059 28.4264C100.695 28.6989 100.351 28.8283 100.026 28.8147C99.2585 28.8147 98.5371 28.0994 97.8614 26.6689C97.3414 25.5653 97.0876 24.5095 97.1009 23.5013C97.1134 21.2671 98.0437 19.3528 99.8892 17.7588C100.968 16.8188 102.158 16.0082 103.458 15.3269C105.473 14.2643 106.994 13.7329 108.022 13.7329C108.489 13.7193 108.912 13.9714 109.289 14.4891L109.582 14.7548L109.835 14.5096L110.03 14.0804C110.953 11.7643 112.397 9.12128 114.36 6.15121C114.801 5.48366 115.302 4.84331 115.862 4.23026C116.147 3.88968 116.42 3.72619 116.68 3.73979C117.071 3.767 117.389 3.99867 117.635 4.43464C117.896 4.8706 118.026 5.29288 118.026 5.70165C118.013 6.06951 117.942 6.39649 117.811 6.68257L116.856 8.33785L113.151 14.346L111.843 16.3692C111.584 16.846 111.311 17.4591 111.025 18.2084C110.687 19.0395 110.387 19.8774 110.128 20.7221C109.881 21.5667 109.693 22.3638 109.562 23.113C109.497 23.4128 109.471 23.7534 109.485 24.1348C109.471 24.6253 109.543 25.0068 109.698 25.2793L109.913 25.5245L110.128 25.6267C110.362 25.6403 110.602 25.5721 110.849 25.4223L111.688 24.8706L112.292 24.3801L114.34 22.5613L114.73 22.173C114.899 22.0231 115.049 21.9346 115.178 21.9073L115.335 21.9482L115.451 22.0504C115.53 22.2003 115.575 22.3774 115.588 22.5818L115.53 23.2765L115.218 23.7875L114.554 24.6253L112.273 27.2002L111.239 28.2629C110.238 29.1894 109.367 29.6457 108.626 29.6321C107.209 29.6321 106.481 28.4605 106.442 26.1171C106.429 25.2316 106.539 24.3324 106.774 23.4196L106.813 22.9904L106.442 23.1948L106.051 23.5627L103.4 26.3828ZM105.759 20.7425C105.928 20.579 106.351 20.3201 107.027 19.966C107.417 19.7752 107.664 19.5845 107.768 19.3937C107.82 19.312 107.853 19.1689 107.865 18.9645V18.8011L107.632 18.7602C107.384 18.8283 107.098 18.9509 106.774 19.128C106.462 19.3052 105.877 19.5504 105.018 19.8638C104.095 20.2043 103.263 20.5517 102.522 20.906C102.067 21.124 101.657 21.4033 101.294 21.7438C101.086 21.921 100.917 22.139 100.786 22.3978C100.591 22.7384 100.409 23.1675 100.24 23.6853C100.162 23.876 100.13 24.0531 100.143 24.2166C100.143 24.6253 100.305 24.8229 100.631 24.8092C101.059 24.8229 101.944 24.2302 103.282 23.0313L105.759 20.7425ZM114.593 23.6035C114.593 21.9005 115.276 20.1703 116.641 18.4128C117.46 17.3638 118.28 16.5122 119.098 15.8583C119.918 15.1907 120.808 14.6662 121.77 14.2847C122.407 14.0395 122.972 13.91 123.467 13.8964C124.403 13.91 125.151 14.2575 125.71 14.9386L125.865 15.2452L125.885 15.4291C125.872 15.5109 125.736 15.7221 125.475 16.0627L125.32 16.4918L125.71 16.6757C126.203 16.8528 126.47 17.3638 126.509 18.2084C126.496 19.2711 126.314 20.2724 125.963 21.2125L125.359 22.5613L125.027 23.2152C124.923 23.3787 124.878 23.5013 124.89 23.5831L124.929 23.7262L125.066 23.8488C125.183 23.9305 125.326 23.9646 125.495 23.951C125.898 23.951 126.366 23.8556 126.899 23.6649L127.893 23.2357C128.258 23.0585 128.537 22.8814 128.732 22.7044C129.083 22.4183 129.344 22.248 129.512 22.1934L129.727 22.2343L129.903 22.4183C129.968 22.5409 130 22.6908 130 22.8678C130 23.3038 129.903 23.6512 129.707 23.9101C129.421 24.3188 128.888 24.7275 128.108 25.1362C127.549 25.4496 126.99 25.7084 126.431 25.9128C125.989 26.0899 125.625 26.1785 125.339 26.1785L124.13 26.0967L123.506 26.1171C123.337 26.158 123.135 26.3079 122.901 26.5668L121.692 27.6499C120.574 28.5354 119.593 28.9714 118.747 28.9578C117.63 28.985 116.628 28.3583 115.744 27.0776C114.99 26.0422 114.607 24.8842 114.593 23.6035ZM117.635 23.5218C117.61 24.4891 118.071 24.9659 119.02 24.9523L119.918 24.8706L120.678 24.7275L121.439 24.5231L121.692 24.3801L121.536 22.6431C121.536 22.3978 121.601 22.0776 121.731 21.6825L122.102 20.3951L122.452 19.3528L122.843 18.6172L123.155 17.9019L122.375 18.1267C121.763 18.4537 121.12 18.8896 120.444 19.4346L119.294 20.3337C118.344 21.0286 117.799 21.921 117.655 23.0109L117.635 23.5218Z" fill="white"/>
</svg>
