<svg width="644" height="589" viewBox="0 0 644 589" fill="none" xmlns="http://www.w3.org/2000/svg">
<path fill-rule="evenodd" clip-rule="evenodd" d="M291.043 0.260281C347.419 4.02965 379.241 65.0781 430.01 89.8759C497.863 123.018 604.247 100.604 636.384 168.94C667.452 235.002 583.543 299.427 561.249 368.943C538.823 438.871 567.736 537.307 505.662 576.545C442.769 616.301 365.404 542.291 291.043 539.746C220.887 537.345 147.72 597.155 86.8373 562.213C25.9873 527.289 14.1196 443.954 3.3431 374.627C-6.11906 313.755 5.04918 252.658 29.9609 196.317C52.8824 144.477 92.5606 104.38 137.885 70.344C183.906 35.785 233.619 -3.57917 291.043 0.260281Z" fill="#5FA3BC"/>
</svg>
