<svg width="600" height="600" viewBox="0 0 600 600" fill="none" xmlns="http://www.w3.org/2000/svg">
<path fill-rule="evenodd" clip-rule="evenodd" d="M334.359 17.0549C392.845 9.47874 455.74 -16.094 506.784 15.1259C559.011 47.069 581.608 114.636 595.609 176.842C608.79 235.4 588.66 292.629 582.72 352.503C574.696 433.399 620.395 546.664 554.753 588.704C486.866 632.184 409.655 537.966 334.359 511.569C288.2 495.387 241.352 489.982 199.306 464.093C152.615 435.345 109.355 402.494 79.5973 354.709C41.3155 293.237 -19.3518 222.3 6.01814 153.716C31.6962 84.2988 124.599 83.3928 190.035 56.1572C237.416 36.4363 283.837 23.5995 334.359 17.0549Z" fill="#5FA3BC"/>
</svg>
